<?xml version="1.0" encoding="UTF-8"?>
<svg id="Layer_2" data-name="Layer 2" xmlns="http://www.w3.org/2000/svg" viewBox="0 0 84.45 40.59">
  <defs>
    <style>
      .cls-1 {
        fill: #fff;
        fill-rule: evenodd;
      }
    </style>
  </defs>
  <g id="Layer_1-2" data-name="Layer 1">
    <g>
      <path class="cls-1" d="M70.11,32.08V8.5c0-1.54,1.52-1.98,1.87-2.16,3.09-1.53,7.36-3.63,9.09-4.4.94-.42,3.35.29,3.37,2.05v32.6c-.02,1.75-2.43,2.46-3.37,2.05-1.73-.77-6-2.87-9.09-4.4-.36-.18-1.87-.62-1.87-2.16h0Z"/>
      <path class="cls-1" d="M61.95,0H5.53C2.48,0,0,2.48,0,5.53v29.52c0,3.05,2.48,5.53,5.53,5.53h56.42c3.05,0,5.53-2.48,5.53-5.53V5.53c0-3.05-2.48-5.53-5.53-5.53ZM21.87,23.63c-1.85,0-3.34-1.5-3.34-3.34s1.5-3.34,3.34-3.34,3.34,1.5,3.34,3.34-1.5,3.34-3.34,3.34ZM32.33,24.1h-5.39v-7.61h1.67v6.18h3.72v1.43ZM34.96,24.1h-1.68v-7.61h1.68v7.61ZM39.99,24.1h-1.89l-2.49-7.61h1.74l1.71,5.35,1.73-5.35h1.73l-2.53,7.61ZM48.95,24.1h-5.78v-7.61h5.71v1.37h-4.05v1.66h3.72v1.31h-3.72v1.87h4.13v1.4Z"/>
    </g>
  </g>
</svg>