<?xml version="1.0" encoding="UTF-8"?>
<svg id="Layer_2" data-name="Layer 2" xmlns="http://www.w3.org/2000/svg" viewBox="0 0 176.01 112.47">
  <defs>
    <style>
      .cls-1 {
        fill: #fff;
        fill-rule: evenodd;
      }
    </style>
  </defs>
  <g id="Layer_1-2" data-name="Layer 1">
    <path class="cls-1" d="M16.05,6.27c.42-2.66,3.85-5.4,7.66-6.1,3.81-.7,6.56.89,6.15,3.55l-6.38,40.87c-.85,5.45,3.61,9.26,10.89,9.31,7.28.05,15.6-3.66,20.3-9.08L90.46,3.63C92.35,1.45,95.69-.03,98.6,0c2.91.03,4.68,1.58,4.3,3.77l-6.98,40.67c-.94,5.46,3.44,9.33,10.69,9.44,7.25.12,15.59-3.55,20.37-8.95L163.57,3.57C165.48,1.41,168.83-.06,171.73,0c2.9.06,4.63,1.63,4.22,3.82l-19.16,102.48c-.5,2.68-3.99,5.38-7.79,6.02-3.8.65-6.48-1.01-5.98-3.69l7.31-39.11c1.03-5.5-3.31-9.43-10.58-9.58-7.27-.15-15.66,3.52-20.46,8.95l-35.37,39.99c-1.91,2.16-5.24,3.62-8.13,3.57-2.89-.05-4.64-1.59-4.27-3.77l6.75-39.31c.94-5.49-3.48-9.36-10.78-9.44-7.3-.08-15.66,3.64-20.39,9.08L12.49,108.85c-1.88,2.16-5.2,3.65-8.1,3.62-2.91-.02-4.69-1.54-4.35-3.72L16.05,6.27h0Z"/>
  </g>
</svg>