<?xml version="1.0" encoding="UTF-8"?>
<svg id="Layer_2" data-name="Layer 2" xmlns="http://www.w3.org/2000/svg" viewBox="0 0 58.92 62.35">
  <defs>
    <style>
      .cls-1 {
        fill: #fff;
        fill-rule: evenodd;
      }
    </style>
  </defs>
  <g id="Layer_1-2" data-name="Layer 1">
    <path class="cls-1" d="M0,62.35V0h54.68l4.24,6.23v56.11H0ZM50.31,4.14c-.28,0-.51.22-.51.49v5.79c0,.27.23.49.51.49h4.08c.28,0,.51-.22.51-.49v-5.79l-.51-.49h-4.08ZM46.13,35.91c0-1.37-1.07-2.48-2.4-2.48H15.19c-1.32,0-2.4,1.11-2.4,2.48v19.82c0,1.37,1.07,2.48,2.4,2.48h28.55c1.32,0,2.4-1.11,2.4-2.48v-19.82h0ZM4.84,39.62c-.28,0-.51.22-.51.49v5.79c0,.27.23.49.51.49h4.08c.28,0,.51-.22.51-.49v-5.79c0-.27-.23-.49-.51-.49h-4.08ZM4.84,51.45c-.28,0-.51.22-.51.49v5.79c0,.27.23.49.51.49h4.08c.28,0,.51-.22.51-.49v-5.79c0-.27-.23-.49-.51-.49h-4.08ZM46.13,6.62c0-1.37-1.07-2.48-2.4-2.48H15.19c-1.32,0-2.4,1.11-2.4,2.48v19.82c0,1.37,1.07,2.48,2.4,2.48h28.55c1.32,0,2.4-1.11,2.4-2.48V6.62h0ZM4.84,27.79c-.28,0-.51.22-.51.49v5.79c0,.27.23.49.51.49h4.08c.28,0,.51-.22.51-.49v-5.79c0-.27-.23-.49-.51-.49h-4.08ZM50.31,39.62c-.28,0-.51.22-.51.49v5.79c0,.27.23.49.51.49h4.08c.28,0,.51-.22.51-.49v-5.79c0-.27-.23-.49-.51-.49h-4.08ZM4.84,4.14c-.28,0-.51.22-.51.49v5.79c0,.27.23.49.51.49h4.08c.28,0,.51-.22.51-.49v-5.79c0-.27-.23-.49-.51-.49h-4.08ZM50.31,27.79c-.28,0-.51.22-.51.49v5.79c0,.27.23.49.51.49h4.08c.28,0,.51-.22.51-.49v-5.79c0-.27-.23-.49-.51-.49h-4.08ZM50.31,15.97c-.28,0-.51.22-.51.49v5.79c0,.27.23.49.51.49h4.08c.28,0,.51-.22.51-.49v-5.79c0-.27-.23-.49-.51-.49h-4.08ZM50.31,51.45c-.28,0-.51.22-.51.49v5.79c0,.27.23.49.51.49h4.08c.28,0,.51-.22.51-.49v-5.79c0-.27-.23-.49-.51-.49h-4.08ZM4.84,15.97c-.28,0-.51.22-.51.49v5.79c0,.27.23.49.51.49h4.08c.28,0,.51-.22.51-.49v-5.79c0-.27-.23-.49-.51-.49h-4.08Z"/>
  </g>
</svg>