<?xml version="1.0" encoding="UTF-8"?>
<svg id="Layer_2" data-name="Layer 2" xmlns="http://www.w3.org/2000/svg" viewBox="0 0 163.88 70.37">
  <defs>
    <style>
      .cls-1 {
        fill: #fff;
        fill-rule: evenodd;
      }
    </style>
  </defs>
  <g id="Layer_1-2" data-name="Layer 1">
    <g>
      <path class="cls-1" d="M97.22,2.2v17.59c0,1.21-.99,2.2-2.2,2.2h-26.17c-1.21,0-2.2-.99-2.2-2.2V2.2c0-1.21.99-2.2,2.2-2.2h26.17c1.21,0,2.2.99,2.2,2.2ZM81.94,3.76c-3.99,0-7.23,3.24-7.23,7.23s3.24,7.23,7.23,7.23,7.23-3.24,7.23-7.23-3.24-7.23-7.23-7.23h0ZM81.94,6.64c2.4,0,4.35,1.95,4.35,4.35s-1.95,4.35-4.35,4.35-4.35-1.95-4.35-4.35,1.95-4.35,4.35-4.35ZM78.8,46.6v-11.3c0-1.07.43-2.1,1.18-2.86s1.79-1.18,2.86-1.18h17.54c.42,0,.83-.17,1.13-.47.3-.3.47-.71.47-1.13v-14.15h-3.3V1.31h10.15c.37,0,.73.15,1,.41.26.26.41.62.41,1v11.38c0,.37-.15.73-.41,1-.26.26-.62.41-1,.41h-1.89v15.58c0,1.36-.54,2.66-1.5,3.63-.96.96-2.27,1.5-3.63,1.5h-16.68v10.39h2.01c.74,0,1.45.29,1.97.81.52.52.82,1.23.82,1.97v4.21h-15.92v-4.21c0-.74.29-1.45.82-1.97.52-.52,1.23-.81,1.97-.81h2.01Z"/>
      <path class="cls-1" d="M32.42,57.57v2.88c0,1.65-1.34,2.99-2.99,2.99h-5.99c-1.65,0-2.99-1.34-2.99-2.99v-11.04c0-1.65,1.34-2.99,2.99-2.99h5.99c1.65,0,2.99,1.34,2.99,2.99v2.78l24.25,6.05c.1,0,.18.05.23.14l3.99,7.67c.04.08.04.19-.02.26-.05.08-.14.12-.24.11l-28.22-8.86h0ZM23.62,42.47c-13.27-.15-23.62-1.34-23.62-2.79s10.35-2.65,23.62-2.79v-.02c0-1.55,1.26-2.81,2.81-2.81s2.81,1.26,2.81,2.81v.02c13.27.15,23.62,1.34,23.62,2.79s-10.35,2.65-23.62,2.79v2.16h-5.62s0-2.16,0-2.16ZM131.46,57.57l-28.22,8.86c-.09,0-.19-.03-.24-.11-.05-.08-.06-.18-.02-.26l3.99-7.67c.04-.09.13-.14.23-.14l24.25-6.05v-2.78c0-1.65,1.34-2.99,2.99-2.99h5.99c1.65,0,2.99,1.34,2.99,2.99v11.04c0,1.65-1.34,2.99-2.99,2.99h-5.99c-1.65,0-2.99-1.34-2.99-2.99v-2.88h0ZM140.25,42.47v2.16h-5.62v-2.16c-13.27-.15-23.62-1.34-23.62-2.79s10.35-2.65,23.62-2.79v-.02c0-1.55,1.26-2.81,2.81-2.81s2.81,1.26,2.81,2.81v.02c13.27.15,23.62,1.34,23.62,2.79s-10.35,2.65-23.62,2.79ZM96.2,70.37h-28.51s-1.03.03-2.37-.89c-1.76-1.2-4.59-7.43-4.59-7.43,0,0-2.06-3.09-1.32-5.25.5-1.47,3.51-1.18,3.51-1.18h38.07s3.01-.29,3.51,1.18c.73,2.16-1.32,5.25-1.32,5.25,0,0-2.83,6.22-4.59,7.43-1.34.92-2.37.89-2.37.89h0ZM75.35,62c-.75,0-1.36.61-1.36,1.36s.61,1.36,1.36,1.36,1.36-.61,1.36-1.36-.61-1.36-1.36-1.36ZM81.94,62c-.75,0-1.36.61-1.36,1.36s.61,1.36,1.36,1.36,1.35-.61,1.35-1.36-.61-1.36-1.35-1.36ZM88.53,62c-.75,0-1.36.61-1.36,1.36s.61,1.36,1.36,1.36,1.36-.61,1.36-1.36-.61-1.36-1.36-1.36ZM95.12,62c-.75,0-1.36.61-1.36,1.36s.61,1.36,1.36,1.36,1.36-.61,1.36-1.36-.61-1.36-1.36-1.36ZM68.76,62c-.75,0-1.36.61-1.36,1.36s.61,1.36,1.36,1.36,1.36-.61,1.36-1.36-.61-1.36-1.36-1.36Z"/>
    </g>
  </g>
</svg>