<?xml version="1.0" encoding="UTF-8"?>
<svg id="Layer_2" data-name="Layer 2" xmlns="http://www.w3.org/2000/svg" viewBox="0 0 80.05 80.05">
  <defs>
    <style>
      .cls-1 {
        fill: #ffb618;
      }

      .cls-1, .cls-2, .cls-3, .cls-4 {
        fill-rule: evenodd;
      }

      .cls-5 {
        fill: #fff;
      }

      .cls-2 {
        fill: #132a6d;
      }

      .cls-3 {
        fill: #2d867f;
      }

      .cls-4 {
        fill: #af0000;
      }
    </style>
  </defs>
  <g id="Layer_1-2" data-name="Layer 1">
    <g>
      <path class="cls-3" d="M64.49,41.33c-4.41,0-7.98-3.56-7.98-7.98s3.56-7.98,7.98-7.98,7.98,3.56,7.98,7.98-3.56,7.98-7.98,7.98Z"/>
      <path class="cls-1" d="M51.15,23.54c-4.41,0-7.98-3.56-7.98-7.98s3.56-7.98,7.98-7.98,7.98,3.56,7.98,7.98-3.56,7.98-7.98,7.98Z"/>
      <path class="cls-4" d="M28.91,23.54c-4.41,0-7.98-3.56-7.98-7.98s3.56-7.98,7.98-7.98,7.98,3.56,7.98,7.98-3.56,7.98-7.98,7.98Z"/>
      <path class="cls-2" d="M15.57,41.33c-4.41,0-7.98-3.56-7.98-7.98s3.56-7.98,7.98-7.98,7.98,3.56,7.98,7.98-3.56,7.98-7.98,7.98Z"/>
      <path class="cls-5" d="M40.03,0C17.92,0,0,17.92,0,40.03s17.92,40.03,40.03,40.03c3.69,0,6.67-2.98,6.67-6.67,0-1.73-.65-3.29-1.73-4.47-1.05-1.18-1.67-2.71-1.67-4.43,0-3.69,2.98-6.67,6.67-6.67h7.85c12.28,0,22.24-9.96,22.24-22.24C80.05,15.92,62.13,0,40.03,0ZM15.57,40.03c-3.69,0-6.67-2.98-6.67-6.67s2.98-6.67,6.67-6.67,6.67,2.98,6.67,6.67-2.98,6.67-6.67,6.67ZM28.91,22.24c-3.69,0-6.67-2.98-6.67-6.67s2.98-6.67,6.67-6.67,6.67,2.98,6.67,6.67-2.98,6.67-6.67,6.67ZM51.15,22.24c-3.69,0-6.67-2.98-6.67-6.67s2.98-6.67,6.67-6.67,6.67,2.98,6.67,6.67-2.98,6.67-6.67,6.67ZM64.49,40.03c-3.69,0-6.67-2.98-6.67-6.67s2.98-6.67,6.67-6.67,6.67,2.98,6.67,6.67-2.98,6.67-6.67,6.67Z"/>
    </g>
  </g>
</svg>