<?xml version="1.0" encoding="UTF-8"?>
<svg id="Layer_2" data-name="Layer 2" xmlns="http://www.w3.org/2000/svg" viewBox="0 0 80.05 62.35">
  <defs>
    <style>
      .cls-1 {
        fill: #fff;
        fill-rule: evenodd;
      }
    </style>
  </defs>
  <g id="Layer_1-2" data-name="Layer 1">
    <path class="cls-1" d="M56.15,0l7.09,11.74h14.51c1.27,0,2.29,1.03,2.29,2.29v44.52l-4.51,3.8H4.51l-4.51-3.8V14.03c0-1.27,1.03-2.29,2.29-2.29h22.86L32.25,0h23.91ZM44.2,17.98c-9.76,0-17.67,7.92-17.67,17.67s7.92,17.67,17.67,17.67,17.67-7.92,17.67-17.67-7.92-17.67-17.67-17.67ZM44.2,23.38c6.77,0,12.27,5.5,12.27,12.27s-5.5,12.27-12.27,12.27-12.27-5.5-12.27-12.27,5.5-12.27,12.27-12.27ZM7.41,9.81c0-2.04,1.81-3.69,4.04-3.69s4.04,1.65,4.04,3.69H7.41Z"/>
  </g>
</svg>